<?xml version="1.0" encoding="UTF-8" standalone="no"?>
<svg width="60px" height="372px" viewBox="0 0 60 372" version="1.1" xmlns="http://www.w3.org/2000/svg" xmlns:xlink="http://www.w3.org/1999/xlink" xmlns:sketch="http://www.bohemiancoding.com/sketch/ns">
    <defs></defs>
    <g id="Page-1" stroke="none" stroke-width="1" fill="none" fill-rule="evenodd" sketch:type="MSPage">
        <path d="M28.66,14 L22,20.65 L15.34,14 L13,16.34 L19.65,23 L13,29.66 L15.34,32 L22,25.35 L28.66,32 L31,29.66 L24.35,23 L31,16.34 L28.66,14 L28.66,14 Z" id="Shape-copy-copy" fill-opacity="0.15" fill="#000000" sketch:type="MSShapeGroup"></path>
        <path d="M28.66,13 L22,19.65 L15.34,13 L13,15.34 L19.65,22 L13,28.66 L15.34,31 L22,24.35 L28.66,31 L31,28.66 L24.35,22 L31,15.34 L28.66,13 L28.66,13 Z" id="Shape-copy-copy-2" fill="#FFFFFF" sketch:type="MSShapeGroup"></path>
        <path d="M20.34,58 L18,60.34 L24.65,67 L18,73.66 L20.34,76 L29.35,67 L20.34,58 L20.34,58 Z" id="Shape-copy-copy-3" fill-opacity="0.15" fill="#000000" sketch:type="MSShapeGroup"></path>
        <path d="M20.34,57 L18,59.34 L24.65,66 L18,72.66 L20.34,75 L29.35,66 L20.34,57 L20.34,57 Z" id="Shape-copy-copy-4" fill="#FFFFFF" sketch:type="MSShapeGroup"></path>
        <path d="M18.34,102 L16,104.34 L22.65,111 L16,117.66 L18.34,120 L27.35,111 L18.34,102 L18.34,102 Z" id="Shape-copy-copy-4" fill-opacity="0.15" fill="#000000" sketch:type="MSShapeGroup" transform="translate(21.500000, 111.000000) scale(-1, 1) translate(-21.500000, -111.000000) "></path>
        <path d="M18.34,101 L16,103.34 L22.65,110 L16,116.66 L18.34,119 L27.35,110 L18.34,101 L18.34,101 Z" id="Shape-copy-copy-5" fill="#FFFFFF" sketch:type="MSShapeGroup" transform="translate(21.500000, 110.000000) scale(-1, 1) translate(-21.500000, -110.000000) "></path>
        <path d="M30,160.65 L18.34,149 L16,151.34 L27.65,163 L16,174.66 L18.34,177 L30,165.35 L41.66,177 L44,174.66 L32.35,163 L44,151.34 L41.66,149 L30,160.65 L30,160.65 Z" id="Shape-copy-copy-3" fill-opacity="0.15" fill="#000000" sketch:type="MSShapeGroup"></path>
        <path d="M30,159.65 L18.34,148 L16,150.34 L27.65,162 L16,173.66 L18.34,176 L30,164.35 L41.66,176 L44,173.66 L32.35,162 L44,150.34 L41.66,148 L30,159.65 L30,159.65 Z" id="Shape-copy-copy-4" fill="#FFFFFF" sketch:type="MSShapeGroup"></path>
        <path d="M23.34,205 L21,207.34 L36.65,223 L21,238.66 L23.34,241 L41.35,223 L23.34,205 L23.34,205 Z" id="Shape-copy-copy-4" fill-opacity="0.15" fill="#000000" sketch:type="MSShapeGroup"></path>
        <path d="M23.34,204 L21,206.34 L36.65,222 L21,237.66 L23.34,240 L41.35,222 L23.34,204 L23.34,204 Z" id="Shape-copy-copy-5" fill="#FFFFFF" sketch:type="MSShapeGroup"></path>
        <path d="M18.65,283 L36.66,301 L39,298.66 L23.35,283 L39,267.34 L36.66,265 L18.65,283 L18.65,283 Z" id="Shape-copy-copy-5" fill-opacity="0.15" fill="#000000" sketch:type="MSShapeGroup"></path>
        <path d="M18.65,282 L36.66,300 L39,297.66 L23.35,282 L39,266.34 L36.66,264 L18.65,282 L18.65,282 Z" id="Shape-copy-copy-6" fill="#FFFFFF" sketch:type="MSShapeGroup"></path>
        <path d="M16.990778,329 C16.4435864,329 16,329.450975 16,329.990778 L16,334.009222 C16,334.556414 16.4509752,335 16.990778,335 L21.009222,335 C21.5564136,335 22,334.549025 22,334.009222 L22,329.990778 C22,329.443586 21.5490248,329 21.009222,329 L16.990778,329 Z M16.990778,340 C16.4435864,340 16,340.450975 16,340.990778 L16,345.009222 C16,345.556414 16.4509752,346 16.990778,346 L21.009222,346 C21.5564136,346 22,345.549025 22,345.009222 L22,340.990778 C22,340.443586 21.5490248,340 21.009222,340 L16.990778,340 Z M16.990778,351 C16.4435864,351 16,351.450975 16,351.990778 L16,356.009222 C16,356.556414 16.4509752,357 16.990778,357 L21.009222,357 C21.5564136,357 22,356.549025 22,356.009222 L22,351.990778 C22,351.443586 21.5490248,351 21.009222,351 L16.990778,351 Z M27.990778,329 C27.4435864,329 27,329.450975 27,329.990778 L27,334.009222 C27,334.556414 27.4509752,335 27.990778,335 L32.009222,335 C32.5564136,335 33,334.549025 33,334.009222 L33,329.990778 C33,329.443586 32.5490248,329 32.009222,329 L27.990778,329 Z M27.990778,340 C27.4435864,340 27,340.450975 27,340.990778 L27,345.009222 C27,345.556414 27.4509752,346 27.990778,346 L32.009222,346 C32.5564136,346 33,345.549025 33,345.009222 L33,340.990778 C33,340.443586 32.5490248,340 32.009222,340 L27.990778,340 Z M27.990778,351 C27.4435864,351 27,351.450975 27,351.990778 L27,356.009222 C27,356.556414 27.4509752,357 27.990778,357 L32.009222,357 C32.5564136,357 33,356.549025 33,356.009222 L33,351.990778 C33,351.443586 32.5490248,351 32.009222,351 L27.990778,351 Z M38.990778,329 C38.4435864,329 38,329.450975 38,329.990778 L38,334.009222 C38,334.556414 38.4509752,335 38.990778,335 L43.009222,335 C43.5564136,335 44,334.549025 44,334.009222 L44,329.990778 C44,329.443586 43.5490248,329 43.009222,329 L38.990778,329 Z M38.990778,340 C38.4435864,340 38,340.450975 38,340.990778 L38,345.009222 C38,345.556414 38.4509752,346 38.990778,346 L43.009222,346 C43.5564136,346 44,345.549025 44,345.009222 L44,340.990778 C44,340.443586 43.5490248,340 43.009222,340 L38.990778,340 Z M38.990778,351 C38.4435864,351 38,351.450975 38,351.990778 L38,356.009222 C38,356.556414 38.4509752,357 38.990778,357 L43.009222,357 C43.5564136,357 44,356.549025 44,356.009222 L44,351.990778 C44,351.443586 43.5490248,351 43.009222,351 L38.990778,351 Z" id="Rectangle-2" fill-opacity="0.15" fill="#000000" sketch:type="MSShapeGroup"></path>
        <path d="M16.990778,328 C16.4435864,328 16,328.450975 16,328.990778 L16,333.009222 C16,333.556414 16.4509752,334 16.990778,334 L21.009222,334 C21.5564136,334 22,333.549025 22,333.009222 L22,328.990778 C22,328.443586 21.5490248,328 21.009222,328 L16.990778,328 Z M16.990778,339 C16.4435864,339 16,339.450975 16,339.990778 L16,344.009222 C16,344.556414 16.4509752,345 16.990778,345 L21.009222,345 C21.5564136,345 22,344.549025 22,344.009222 L22,339.990778 C22,339.443586 21.5490248,339 21.009222,339 L16.990778,339 Z M16.990778,350 C16.4435864,350 16,350.450975 16,350.990778 L16,355.009222 C16,355.556414 16.4509752,356 16.990778,356 L21.009222,356 C21.5564136,356 22,355.549025 22,355.009222 L22,350.990778 C22,350.443586 21.5490248,350 21.009222,350 L16.990778,350 Z M27.990778,328 C27.4435864,328 27,328.450975 27,328.990778 L27,333.009222 C27,333.556414 27.4509752,334 27.990778,334 L32.009222,334 C32.5564136,334 33,333.549025 33,333.009222 L33,328.990778 C33,328.443586 32.5490248,328 32.009222,328 L27.990778,328 Z M27.990778,339 C27.4435864,339 27,339.450975 27,339.990778 L27,344.009222 C27,344.556414 27.4509752,345 27.990778,345 L32.009222,345 C32.5564136,345 33,344.549025 33,344.009222 L33,339.990778 C33,339.443586 32.5490248,339 32.009222,339 L27.990778,339 Z M27.990778,350 C27.4435864,350 27,350.450975 27,350.990778 L27,355.009222 C27,355.556414 27.4509752,356 27.990778,356 L32.009222,356 C32.5564136,356 33,355.549025 33,355.009222 L33,350.990778 C33,350.443586 32.5490248,350 32.009222,350 L27.990778,350 Z M38.990778,328 C38.4435864,328 38,328.450975 38,328.990778 L38,333.009222 C38,333.556414 38.4509752,334 38.990778,334 L43.009222,334 C43.5564136,334 44,333.549025 44,333.009222 L44,328.990778 C44,328.443586 43.5490248,328 43.009222,328 L38.990778,328 Z M38.990778,339 C38.4435864,339 38,339.450975 38,339.990778 L38,344.009222 C38,344.556414 38.4509752,345 38.990778,345 L43.009222,345 C43.5564136,345 44,344.549025 44,344.009222 L44,339.990778 C44,339.443586 43.5490248,339 43.009222,339 L38.990778,339 Z M38.990778,350 C38.4435864,350 38,350.450975 38,350.990778 L38,355.009222 C38,355.556414 38.4509752,356 38.990778,356 L43.009222,356 C43.5564136,356 44,355.549025 44,355.009222 L44,350.990778 C44,350.443586 43.5490248,350 43.009222,350 L38.990778,350 Z" id="Rectangle-2" fill="#FFFFFF" sketch:type="MSShapeGroup"></path>
    </g>
</svg>