<?xml version="1.0" encoding="UTF-8" standalone="no"?>
<svg width="30px" height="1800px" viewBox="0 0 30 1800" version="1.1" xmlns="http://www.w3.org/2000/svg" xmlns:xlink="http://www.w3.org/1999/xlink" xmlns:sketch="http://www.bohemiancoding.com/sketch/ns">
    <title>ui-gray-7</title>
    <description>Created with Sketch (http://www.bohemiancoding.com/sketch)</description>
    <defs></defs>
    <g id="Page-1" stroke="none" stroke-width="1" fill="none" fill-rule="evenodd" sketch:type="MSPage">
        <path d="M15,39 C16.65,39 18,40.35 18,42 L18,44 L12,44 L12,42 C12,40.35 13.35,39 15,39 C15,39 13.35,39 15,39 L15,39 L15,39 Z M21,44 L20,44 L20,42 C20,39.24 17.76,37 15,37 C12.24,37 10,39.24 10,42 L10,44 L9,44 C8.45,44 8,44.55 8,45.1 L8,52 C8,52.55 8.45,53 9,53 L21,53 C21.55,53 22,52.55 22,52 L22,45.1 C22,44.55 21.55,44 21,44 Z M14,47 L14,50 L16,50 L16,47 L14,47 Z" id="Shape" fill="#BABFC4" sketch:type="MSShapeGroup"></path>
        <path d="M15,39 C16.65,39 18,40.35 18,42 L18,44 L12,44 L12,42 C12,40.35 13.35,39 15,39 C15,39 13.35,39 15,39 L15,39 L15,39 Z M21,44 L20,44 L20,42 C20,39.24 17.76,37 15,37 C12.24,37 10,39.24 10,42 L10,44 L9,44 C8.45,44 8,44.55 8,45.1 L8,52 C8,52.55 8.45,53 9,53 L21,53 C21.55,53 22,52.55 22,52 L22,45.1 C22,44.55 21.55,44 21,44 Z M14,47 L14,50 L16,50 L16,47 L14,47 Z" id="Shape" fill="#BABFC4" sketch:type="MSShapeGroup"></path>
        <path d="M14.62,79.06 C14.34,78.98 14.12,78.88 13.96,79.04 L12.75,80.25 C11.93,81.08 10.58,81.08 9.75,80.25 C8.93,79.43 8.93,78.08 9.75,77.25 L12.75,74.25 C13.58,73.42 14.93,73.42 15.76,74.25 C16.17,74.66 16.84,74.66 17.26,74.25 C17.67,73.84 17.67,73.16 17.26,72.75 C17,72.48 16.72,72.27 16.41,72.1 C16.24,72 16.07,71.91 15.89,71.83 L15.88,71.83 C15.38,71.62 14.85,71.51 14.32,71.5 L14.27,71.51 C13.58,71.5 12.89,71.66 12.27,72 C11.9,72.19 11.56,72.44 11.25,72.75 L8.25,75.75 C6.59,77.41 6.59,80.1 8.25,81.75 C9.91,83.41 12.6,83.41 14.25,81.75 L16.44,79.57 C16.64,79.37 16.58,79.23 16.28,79.25 C15.72,79.27 15.16,79.21 14.62,79.06 C14.62,79.06 15.16,79.21 14.62,79.06 L14.62,79.06 L14.62,79.06 Z" id="Shape" fill="#BABFC4" sketch:type="MSShapeGroup"></path>
        <path d="M15.76,68.24 L13.53,70.47 C13.32,70.68 13.39,70.81 13.68,70.79 C14.24,70.77 14.8,70.83 15.35,70.98 C15.63,71.06 15.86,71.15 16,71 L17.26,69.74 C18.08,68.92 19.43,68.92 20.26,69.74 C21.09,70.57 21.09,71.92 20.26,72.75 L17.26,75.75 C16.43,76.58 15.08,76.58 14.25,75.75 C13.84,75.34 13.17,75.34 12.75,75.75 C12.34,76.16 12.34,76.84 12.75,77.25 C13.27,77.77 13.89,78.12 14.54,78.32 C14.67,78.35 14.8,78.38 14.92,78.41 C15.07,78.44 15.21,78.46 15.34,78.47 C15.49,78.49 15.65,78.5 15.81,78.49 C15.97,78.49 16.13,78.48 16.29,78.46 C16.39,78.45 16.48,78.44 16.57,78.42 C17.38,78.26 18.14,77.87 18.76,77.25 L21.76,74.25 C23.42,72.59 23.42,69.9 21.76,68.24 C20.1,66.58 17.42,66.58 15.76,68.24 C15.76,68.24 17.42,66.58 15.76,68.24 L15.76,68.24 L15.76,68.24 Z" id="Shape" fill="#BABFC4" sketch:type="MSShapeGroup"></path>
        <path d="M19.66,98 L15,102.65 L10.34,98 L8,100.34 L12.65,105 L8,109.66 L10.34,112 L15,107.35 L19.66,112 L22,109.66 L17.35,105 L22,100.34 L19.66,98 Z" id="Shape" fill="#BABFC4" sketch:type="MSShapeGroup"></path>
        <path d="M12.21,135.52 C12.28,135.79 12.43,135.79 12.53,135.53 C13.43,133.33 15.21,131.07 18.01,132 L18.01,133.37 C18.01,134 18.38,134.19 18.83,133.8 L22.84,130.35 C23.06,130.16 23.06,129.84 22.84,129.65 L18.83,126.2 C18.38,125.81 18.01,126 18.01,126.62 L18.01,128 C14.69,128 12.01,130.69 12.01,134 C12.01,134.53 12.08,135.04 12.21,135.52 C12.21,135.52 12.08,135.04 12.21,135.52 L12.21,135.52 L12.21,135.52 Z" id="Shape" fill="#BABFC4" sketch:type="MSShapeGroup"></path>
        <path d="M22.62,132.29 L21.39,133.27 C21.18,133.45 21.01,133.81 21.01,134.09 L21.01,139 L9.01,139 L9.01,131 L11.1,131 C11.37,131 11.68,130.79 11.8,130.54 C11.99,130.14 12.21,129.76 12.47,129.4 C12.63,129.17 12.54,129 12.27,129 L8.01,129 C7.45,129 7.01,129.45 7.01,130 L7.01,142 C7.01,142.55 7.45,143 8.01,143 L22.01,143 C22.56,143 23.01,142.55 23.01,142 L23.01,132.47 C23.01,132.2 22.83,132.11 22.62,132.29 C22.62,132.29 22.83,132.11 22.62,132.29 L22.62,132.29 L22.62,132.29 Z" id="Shape" fill="#BABFC4" sketch:type="MSShapeGroup"></path>
        <path d="M13.54,160.15 C13.35,159.95 13.05,159.95 12.86,160.15 L12.17,160.87 C11.99,161.06 11.99,161.38 12.17,161.58 L15.47,164.99 L12.15,168.42 C11.96,168.62 11.96,168.94 12.15,169.14 L12.83,169.85 C13.02,170.05 13.33,170.05 13.51,169.85 L17.86,165.34 C18.05,165.15 18.05,164.83 17.86,164.63 L13.54,160.15 L13.54,160.15 L13.54,160.15 L13.54,160.15 Z" id="Shape" fill="#BABFC4" sketch:type="MSShapeGroup"></path>
        <path d="M15.47,190.15 C15.66,189.95 15.96,189.95 16.15,190.15 L16.84,190.87 C17.02,191.06 17.02,191.38 16.84,191.58 L13.54,194.99 L16.86,198.42 C17.05,198.62 17.05,198.94 16.86,199.14 L16.18,199.85 C15.99,200.05 15.69,200.05 15.5,199.85 L11.15,195.34 C10.96,195.15 10.96,194.83 11.15,194.63 L15.47,190.15 L15.47,190.15 L15.47,190.15 L15.47,190.15 Z" id="Shape" fill="#BABFC4" sketch:type="MSShapeGroup"></path>
        <path d="M19.87,224.54 C20.06,224.35 20.06,224.04 19.87,223.85 L19.15,223.17 C18.95,222.98 18.63,222.98 18.43,223.17 L15.03,226.46 L11.6,223.14 C11.4,222.95 11.08,222.95 10.88,223.14 L10.16,223.83 C9.96,224.01 9.96,224.32 10.16,224.51 L14.67,228.86 C14.87,229.05 15.19,229.05 15.39,228.86 L19.87,224.54 L19.87,224.54 L19.87,224.54 L19.87,224.54 Z" id="Shape" fill="#BABFC4" sketch:type="MSShapeGroup"></path>
        <path d="M22.65,254.35 L21.36,255.65 C21.16,255.84 21.01,256.22 21.01,256.5 L21.01,261 L9.01,261 L9.01,249 L13.51,249 C13.78,249 14.16,248.84 14.36,248.65 L15.65,247.35 C15.85,247.16 15.78,247 15.51,247 L8.01,247 C7.45,247 7.01,247.45 7.01,248 L7.01,262 C7.01,262.55 7.45,263 8.01,263 L22.01,263 C22.56,263 23.01,262.55 23.01,262 L23.01,254.5 C23.01,254.22 22.85,254.16 22.65,254.35 C22.65,254.35 22.85,254.16 22.65,254.35 L22.65,254.35 L22.65,254.35 Z" id="Shape" fill="#BABFC4" sketch:type="MSShapeGroup"></path>
        <path d="M12.01,256.83 L17.71,251.12 L18.88,252.29 L13.18,258 L12.01,258 L12.01,256.83 L12.01,256.83 L12.01,256.83 L12.01,256.83 Z M10.01,260 L14.01,260 L22.3,251.71 C22.69,251.32 22.69,250.68 22.3,250.29 L19.71,247.71 C19.32,247.32 18.69,247.32 18.3,247.71 L10.01,256 L10.01,260 L10.01,260 L10.01,260 L10.01,260 Z" id="Shape" fill="#BABFC4" sketch:type="MSShapeGroup"></path>
        <path d="M11.51,286 L15.49,286 L14.15,287.42 C13.96,287.62 13.96,287.94 14.15,288.14 L14.83,288.85 C15.02,289.05 15.33,289.05 15.52,288.85 L18.87,285.35 C19.05,285.15 19.05,284.83 18.87,284.63 L15.54,281.15 C15.35,280.95 15.05,280.95 14.86,281.15 L14.18,281.87 C13.99,282.06 13.99,282.38 14.18,282.58 L15.52,284 L11.51,284 C11.23,284 11.01,284.22 11.01,284.5 L11.01,285.5 C11.01,285.78 11.23,286 11.51,286 C11.51,286 11.23,286 11.51,286 L11.51,286 L11.51,286 Z" id="Shape" fill="#BABFC4" sketch:type="MSShapeGroup"></path>
        <path d="M15.01,291 C11.7,291 9.01,288.31 9.01,285 C9.01,281.69 11.7,279 15.01,279 C18.31,279 21.01,281.69 21.01,285 C21.01,288.31 18.31,291 15.01,291 L15.01,291 L15.01,291 L15.01,291 Z M15.01,277 C10.59,277 7.01,280.58 7.01,285 C7.01,289.42 10.59,293 15.01,293 C19.42,293 23.01,289.42 23.01,285 C23.01,280.58 19.42,277 15.01,277 L15.01,277 L15.01,277 L15.01,277 Z" id="Shape" fill="#BABFC4" sketch:type="MSShapeGroup"></path>
        <path d="M13,308 L13,313 L8,313 L8,317 L13,317 L13,322 L17,322 L17,317 L22,317 L22,313 L17,313 L17,308 L13,308 Z" id="Shape" fill="#BABFC4" sketch:type="MSShapeGroup"></path>
        <path d="M15.01,347.01 C13.9,347.01 13.01,346.11 13.01,345.01 C13.01,343.91 13.9,343.01 15.01,343.01 C16.11,343.01 17.01,343.91 17.01,345.01 C17.01,346.11 16.11,347.01 15.01,347.01 L15.01,347.01 L15.01,347.01 L15.01,347.01 Z M15.01,337.01 C10.59,337.01 7.01,340.59 7.01,345.01 C7.01,349.32 10.42,352.82 14.68,352.99 C14.66,352.99 15.14,352.98 15.21,352.97 C16.33,352.88 17.46,352.56 18.5,351.97 C18.98,351.69 19.15,351.08 18.87,350.6 C18.6,350.12 17.99,349.95 17.51,350.23 C16.63,350.72 15.71,350.96 14.76,351 C11.56,350.87 9.01,348.24 9.01,345.01 C9.01,341.69 11.69,339.01 15.01,339.01 C18.32,339.01 21.01,341.69 21.01,345.01 L21.01,346.01 C21.01,346.56 20.56,347.01 20.01,347.01 C19.46,347.01 19.01,346.56 19.01,346.01 L19.01,345.01 C19.01,342.8 17.21,341.01 15.01,341.01 C12.8,341.01 11.01,342.8 11.01,345.01 C11.01,347.22 12.8,349.01 15.01,349.01 C16.06,349.01 17.01,348.59 17.72,347.93 C18.27,348.58 19.08,349.01 20.01,349.01 C21.66,349.01 23.01,347.63 23.01,345.85 L23.01,345.01 C23.01,340.59 19.42,337.01 15.01,337.01 L15.01,337.01 L15.01,337.01 L15.01,337.01 Z" id="Shape" fill="#BABFC4" sketch:type="MSShapeGroup"></path>
        <path d="M12.5,373 L17.5,373 C17.78,373 18,372.78 18,372.5 L18,371.5 C18,371.22 17.78,371 17.5,371 L12.5,371 C12.22,371 12,371.22 12,371.5 L12,372.5 C12,372.78 12.22,373 12.5,373 C12.5,373 12.22,373 12.5,373 L12.5,373 L12.5,373 Z M12.5,376 L17.5,376 C17.78,376 18,375.78 18,375.5 L18,374.5 C18,374.22 17.78,374 17.5,374 L12.5,374 C12.22,374 12,374.22 12,374.5 L12,375.5 C12,375.78 12.22,376 12.5,376 C12.5,376 12.22,376 12.5,376 L12.5,376 L12.5,376 Z M11,369 L19,369 L19,379 L11,379 L11,369 L11,369 L11,369 L11,369 Z M16,381.5 C16,381.78 15.78,382 15.5,382 L14.5,382 C14.22,382 14,381.78 14,381.5 L14,380.5 C14,380.22 14.22,380 14.5,380 L15.5,380 C15.78,380 16,380.22 16,380.5 L16,381.5 L16,381.5 L16,381.5 L16,381.5 Z M20,367 L10,367 C9.45,367 9,367.45 9,368 L9,382 C9,382.55 9.45,383 10,383 L20,383 C20.55,383 21,382.55 21,382 L21,368 C21,367.45 20.55,367 20,367 L20,367 L20,367 L20,367 Z" id="Shape" fill="#BABFC4" sketch:type="MSShapeGroup"></path>
        <path d="M22.93,411.63 L20.93,406.63 C20.78,406.25 20.41,406 20,406 L17.5,406 C17.22,406 17,406.22 17,406.5 L17,407.5 C17,407.78 17.22,408 17.5,408 L19.32,408 L20.52,411 L9.48,411 L10.68,408 L12.5,408 C12.78,408 13,407.78 13,407.5 L13,406.5 C13,406.22 12.78,406 12.5,406 L10,406 C9.59,406 9.22,406.25 9.07,406.63 L7.07,411.63 C6.95,411.94 6.99,412.29 7.17,412.56 C7.36,412.84 7.67,413 8,413 L22,413 C22.33,413 22.64,412.84 22.83,412.56 C23.01,412.29 23.05,411.94 22.93,411.63 C22.93,411.63 23.05,411.94 22.93,411.63 L22.93,411.63 L22.93,411.63 Z M15,399 C16.1,399 17,399.9 17,401 C17,402.1 16.1,403 15,403 C13.9,403 13,402.1 13,401 C13,399.9 13.9,399 15,399 C15,399 13.9,399 15,399 L15,399 L15,399 Z M14,404.86 L14,409.5 C14,409.78 14.22,410 14.5,410 L15.5,410 C15.78,410 16,409.78 16,409.5 L16,404.86 C17.72,404.41 19,402.86 19,401 C19,398.79 17.21,397 15,397 C12.79,397 11,398.79 11,401 C11,402.86 12.28,404.41 14,404.86 C14,404.86 12.28,404.41 14,404.86 L14,404.86 L14,404.86 Z" id="Shape" fill="#BABFC4" sketch:type="MSShapeGroup"></path>
        <path d="M9,12.41 L14.65,18.06 C14.84,18.26 15.16,18.26 15.35,18.06 L21,12.41 L21,20 L9,20 L9,12.41 L9,12.41 L9,12.41 L9,12.41 Z M20.59,10 L15,15.59 L9.41,10 L20.59,10 L20.59,10 L20.59,10 L20.59,10 Z M22,8 L8,8 C7.45,8 7,8.45 7,9 L7,21 C7,21.55 7.45,22 8,22 L22,22 C22.55,22 23,21.55 23,21 L23,9 C23,8.45 22.55,8 22,8 L22,8 L22,8 L22,8 Z" id="Shape" fill="#BABFC4" sketch:type="MSShapeGroup"></path>
        <path d="M10,430 L10,432 L12,432 L12,430 L10,430 L10,430 L10,430 L10,430 Z M13,430 L13,432 L15,432 L15,430 L13,430 L13,430 L13,430 L13,430 Z M10,433 L10,435 L12,435 L12,433 L10,433 L10,433 L10,433 L10,433 Z M13,433 L13,435 L15,435 L15,433 L13,433 L13,433 L13,433 L13,433 Z M10,436 L10,438 L12,438 L12,436 L10,436 L10,436 L10,436 L10,436 Z M13,436 L13,438 L15,438 L15,436 L13,436 L13,436 L13,436 L13,436 Z M19,433 L19,435 L21,435 L21,433 L19,433 L19,433 L19,433 L19,433 Z M19,436 L19,438 L21,438 L21,436 L19,436 L19,436 L19,436 L19,436 Z M18,432 L22,432 L22,441 L18,441 L18,432 L18,432 L18,432 L18,432 Z M16,431 L16,441 L9,441 L9,429 L16,429 L16,431 L16,431 L16,431 L16,431 Z M23,430 L18,430 L18,428 C18,427.45 17.55,427 17,427 L8,427 C7.45,427 7,427.45 7,428 L7,442 C7,442.55 7.45,443 8,443 L23,443 C23.55,443 24,442.55 24,442 L24,431 C24,430.45 23.55,430 23,430 L23,430 L23,430 L23,430 Z" id="Shape" fill="#BABFC4" sketch:type="MSShapeGroup"></path>
        <path d="M19.55,470.02 C18.72,470.02 18.05,469.35 18.05,468.52 C18.05,467.69 18.72,467.02 19.55,467.02 C20.38,467.02 21.05,467.69 21.05,468.52 C21.05,469.35 20.38,470.02 19.55,470.02 L19.55,470.02 L19.55,470.02 L19.55,470.02 Z M10.55,470.02 C9.72,470.02 9.05,469.35 9.05,468.52 C9.05,467.69 9.72,467.02 10.55,467.02 C11.38,467.02 12.05,467.69 12.05,468.52 C12.05,469.35 11.38,470.02 10.55,470.02 L10.55,470.02 L10.55,470.02 L10.55,470.02 Z M22.94,467.48 L21.26,459.95 C21.15,459.43 20.6,459 20.05,459 C20.05,458.46 19.6,458.02 19.05,458.02 L18.05,458.02 C17.5,458.02 17.05,458.46 17.05,459 C16.5,459 16.05,459.44 16.05,459.98 L16.05,462.02 L14.05,462.02 L14.05,459.98 C14.05,459.44 13.6,459 13.05,459 C13.05,458.46 12.6,458.02 12.05,458.02 L11.05,458.02 C10.5,458.02 10.05,458.46 10.05,459 C9.5,459 8.96,459.43 8.84,459.95 L7.18,467.42 C7.1,467.7 7.05,468 7.05,468.3 C7.05,470.19 8.62,472.02 10.55,472.02 C12.43,472.02 13.96,471.02 14.04,469.02 L14.05,469.02 L14.05,466.02 L16.05,466.02 L16.05,469.02 L16.07,469.02 C16.14,471.02 17.67,472.02 19.55,472.02 C21.48,472.02 23.05,470.34 23.05,468.45 C23.05,468.16 23.01,467.75 22.94,467.48 C22.94,467.48 23.01,467.75 22.94,467.48 L22.94,467.48 L22.94,467.48 Z" id="Shape" fill="#BABFC4" sketch:type="MSShapeGroup"></path>
        <path d="M19,520 L17,520 C16.7,520 16,520.47 16,521 L16,523 L19,523 L19,526 L16,526 L16,533 L13,533 L13,526 L10,526 L10,523 L13,523 L13,521 C13,518.79 14.96,517 17.06,517 L19,517 L19,520 L19,520 L19,520 L19,520 Z" id="Shape" fill="#BABFC4" sketch:type="MSShapeGroup"></path>
        <rect id="Rectangle" fill="#BABFC4" sketch:type="MSShapeGroup" x="7" y="552" width="3" height="11"></rect>
        <path d="M18,552 C16.14,552 15.42,553 14.96,554 L15,552 L12.03,552 C12.08,553 12,563 12,563 L15,563 L15,557.15 C15,556.85 15.02,556.53 15.1,556.31 C15.35,555.69 16.11,555.04 17.07,555.04 C18.31,555.04 19,556 19,557.4 L19,563 L22,563 L22,557 C22,553.79 20.26,552 18,552 L18,552 L18,552 L18,552 Z" id="Shape" fill="#BABFC4" sketch:type="MSShapeGroup"></path>
        <circle id="Oval" fill="#BABFC4" sketch:type="MSShapeGroup" cx="8.5" cy="549.5" r="1.5"></circle>
        <path d="M23,580.54 C22.41,580.8 21.78,580.97 21.12,581.05 C21.79,580.65 22.31,580 22.56,579.24 C21.92,579.61 21.22,579.89 20.47,580.03 C19.88,579.4 19.02,579 18.08,579 C16.27,579 14.79,580.47 14.79,582.28 C14.79,582.54 14.82,582.79 14.88,583.03 C12.15,582.89 9.73,581.58 8.11,579.6 C7.83,580.08 7.67,580.65 7.67,581.25 C7.67,582.39 8.43,583.39 9.31,583.98 C8.77,583.96 8,583.81 8,583.57 L8,583.61 C8,585.2 8.95,586.53 10.45,586.83 C10.18,586.9 9.8,586.94 9.5,586.94 C9.29,586.94 9.04,586.92 8.84,586.88 C9.26,588.19 10.45,589.14 11.88,589.17 C10.76,590.04 9.33,590.57 7.79,590.57 C7.53,590.57 7.26,590.56 7,590.52 C8.46,591.46 10.18,592 12.03,592 C18.07,592 21.37,587 21.37,582.66 L21.36,582.23 C22,581.77 22.56,581.19 23,580.54 C23,580.54 22.56,581.19 23,580.54 L23,580.54 L23,580.54 Z" id="Shape" fill="#BABFC4" sketch:type="MSShapeGroup"></path>
        <path d="M9,498 L21,498 L15,504 L9,498 Z" id="Shape" fill="#BABFC4" sketch:type="MSShapeGroup"></path>
        <path d="M21,492 L9,492 L15,486 L21,492 Z" id="Shape" fill="#BABFC4" sketch:type="MSShapeGroup"></path>
        <path d="M20.51,614 L12.52,614 L14.86,611.58 C15.05,611.38 15.05,611.06 14.86,610.86 L14.18,610.15 C13.99,609.95 13.69,609.95 13.5,610.15 L9.15,614.65 C8.96,614.85 8.96,615.17 9.15,615.37 L13.47,619.85 C13.66,620.05 13.96,620.05 14.15,619.85 L14.84,619.13 C15.03,618.94 15.03,618.62 14.84,618.42 L12.5,616 L20.51,616 C20.78,616 21.01,615.78 21.01,615.5 L21.01,614.5 C21.01,614.22 20.78,614 20.51,614 L20.51,614 L20.51,614 L20.51,614 Z" id="Shape" fill="#BABFC4" sketch:type="MSShapeGroup"></path>
        <path d="M9.51,644 L17.49,644 L15.15,641.58 C14.96,641.38 14.96,641.06 15.15,640.86 L15.83,640.15 C16.02,639.95 16.33,639.95 16.52,640.15 L20.87,644.65 C21.05,644.85 21.05,645.17 20.87,645.37 L16.54,649.85 C16.35,650.05 16.05,650.05 15.86,649.85 L15.18,649.13 C14.99,648.94 14.99,648.62 15.18,648.42 L17.52,646 L9.51,646 C9.23,646 9.01,645.78 9.01,645.5 L9.01,644.5 C9.01,644.22 9.23,644 9.51,644 C9.51,644 9.23,644 9.51,644 L9.51,644 L9.51,644 Z" id="Shape" fill="#BABFC4" sketch:type="MSShapeGroup"></path>
        <path d="M12.41,683 C11.03,683 9.64,682.46 8.58,681.39 C7.56,680.35 7,678.97 7,677.5 C7,676.03 7.56,674.65 8.58,673.61 L13.95,668.16 C15.47,666.61 17.94,666.61 19.46,668.16 C20.98,669.7 20.98,672.21 19.46,673.76 L14.09,679.21 C13.17,680.15 11.66,680.15 10.73,679.21 C9.8,678.27 9.8,676.73 10.73,675.79 L16.09,670.34 C16.43,670 16.98,670 17.31,670.34 C17.65,670.68 17.65,671.23 17.31,671.57 L11.95,677.03 C11.69,677.29 11.69,677.71 11.95,677.97 C12.2,678.23 12.62,678.23 12.88,677.97 L18.24,672.52 C19.09,671.66 19.09,670.26 18.24,669.39 C17.39,668.53 16.01,668.53 15.17,669.39 L9.8,674.85 C9.1,675.56 8.72,676.5 8.72,677.5 C8.72,678.5 9.1,679.45 9.8,680.16 C11.24,681.62 13.58,681.62 15.02,680.16 L15.02,680.16 L22.53,672.52 C22.87,672.18 23.41,672.18 23.75,672.52 C24.08,672.86 24.08,673.42 23.75,673.76 L15.88,681.75 L15.86,681.74 C14.87,682.58 13.64,683 12.41,683 L12.41,683 L12.41,683 L12.41,683 Z" id="Shape" fill="#BABFC4" sketch:type="MSShapeGroup"></path>
        <path d="M18.5,703 L11.5,703 C11.22,703 11,703.22 11,703.5 L11,704.5 C11,704.78 11.22,705 11.5,705 L18.5,705 C18.78,705 19,704.78 19,704.5 L19,703.5 C19,703.22 18.78,703 18.5,703 L18.5,703 L18.5,703 L18.5,703 Z M15.5,700 L11.5,700 C11.22,700 11,700.22 11,700.5 L11,701.5 C11,701.78 11.22,702 11.5,702 L15.5,702 C15.78,702 16,701.78 16,701.5 L16,700.5 C16,700.22 15.78,700 15.5,700 L15.5,700 L15.5,700 L15.5,700 Z M18.5,706 L11.5,706 C11.22,706 11,706.22 11,706.5 L11,707.5 C11,707.78 11.22,708 11.5,708 L18.5,708 C18.78,708 19,707.78 19,707.5 L19,706.5 C19,706.22 18.78,706 18.5,706 L18.5,706 L18.5,706 L18.5,706 Z M10,711 L10,699 L17,699 L17,701.5 C17,701.78 17.22,702 17.5,702 L20,702 L20,711 L10,711 L10,711 L10,711 L10,711 Z M18.5,697 L9,697 C8.45,697 8,697.45 8,698 L8,712 C8,712.55 8.45,713 9,713 L21,713 C21.55,713 22,712.55 22,712 L22,700.5 C22,700.22 21.84,699.84 21.65,699.65 L19.35,697.35 C19.16,697.16 18.78,697 18.5,697 L18.5,697 L18.5,697 L18.5,697 Z" id="Shape" fill="#BABFC4" sketch:type="MSShapeGroup"></path>
        <path d="M16.01,740 L16.01,736 C17.11,736 18.01,736.9 18.01,738 C18.01,739.1 17.11,740 16.01,740 L16.01,740 L16.01,740 L16.01,740 Z M12.01,732 C12.01,730.9 12.9,730 14.01,730 L14.01,734 C12.9,734 12.01,733.1 12.01,732 C12.01,732 12.01,733.1 12.01,732 L12.01,732 L12.01,732 Z M16.01,730 C16.94,730 17.72,730.64 17.94,731.5 C18.01,731.77 18.23,732 18.51,732 L19.51,732 C19.78,732 20.01,731.77 19.98,731.5 C19.73,729.53 18.04,728 16.01,728 L16.01,727.5 C16.01,727.22 15.78,727 15.51,727 L14.51,727 C14.23,727 14.01,727.22 14.01,727.5 L14.01,728 C11.8,728 10.01,729.79 10.01,732 C10.01,734.21 11.8,736 14.01,736 L14.01,740 C13.07,740 12.29,739.36 12.07,738.5 C12,738.23 11.78,738 11.51,738 L10.51,738 C10.23,738 10,738.23 10.04,738.5 C10.28,740.47 11.97,742 14.01,742 L14.01,742.5 C14.01,742.78 14.23,743 14.51,743 L15.51,743 C15.78,743 16.01,742.78 16.01,742.5 L16.01,742 C18.21,742 20.01,740.21 20.01,738 C20.01,735.79 18.21,734 16.01,734 L16.01,730 L16.01,730 L16.01,730 L16.01,730 Z" id="Shape" fill="#BABFC4" sketch:type="MSShapeGroup"></path>
        <path d="M10.01,768 L10.01,766.31 C10.01,763.38 12.25,761 15.01,761 C17.76,761 20.01,763.38 20.01,766.31 L20.01,768 L10.01,768 L10.01,768 L10.01,768 L10.01,768 Z M15.51,771 L14.51,771 C14.23,771 14.01,770.78 14.01,770.5 L14.01,770 L16.01,770 L16.01,770.5 C16.01,770.78 15.78,771 15.51,771 L15.51,771 L15.51,771 L15.51,771 Z M22.01,766.31 C22.01,762.99 19.9,760.21 17.01,759.31 L17.01,759 C17.01,757.9 16.11,757 15.01,757 C13.9,757 13.01,757.9 13.01,759 L13.01,759.31 C10.12,760.21 8.01,762.99 8.01,766.31 L8.01,768 L7.51,768 C7.23,768 7.01,768.22 7.01,768.5 L7.01,769.5 C7.01,769.78 7.23,770 7.51,770 L12.01,770 C12.01,771.66 13.35,773 15.01,773 C16.66,773 18.01,771.66 18.01,770 L22.51,770 C22.78,770 23.01,769.78 23.01,769.5 L23.01,768.5 C23.01,768.22 22.78,768 22.51,768 L22.01,768 L22.01,766.31 L22.01,766.31 L22.01,766.31 L22.01,766.31 Z" id="Shape" fill="#BABFC4" sketch:type="MSShapeGroup"></path>
        <path d="M16.5,800 L17.5,800 C17.78,800 18,799.78 18,799.5 L18,793.5 C18,793.22 17.78,793 17.5,793 L16.5,793 C16.22,793 16,793.22 16,793.5 L16,799.5 C16,799.78 16.22,800 16.5,800 C16.5,800 16.22,800 16.5,800 L16.5,800 L16.5,800 Z M10.5,800 L11.5,800 C11.78,800 12,799.78 12,799.5 L12,795.5 C12,795.22 11.78,795 11.5,795 L10.5,795 C10.22,795 10,795.22 10,795.5 L10,799.5 C10,799.78 10.22,800 10.5,800 C10.5,800 10.22,800 10.5,800 L10.5,800 L10.5,800 Z M13.5,800 L14.5,800 C14.78,800 15,799.78 15,799.5 L15,791.5 C15,791.22 14.78,791 14.5,791 L13.5,791 C13.22,791 13,791.22 13,791.5 L13,799.5 C13,799.78 13.22,800 13.5,800 C13.5,800 13.22,800 13.5,800 L13.5,800 L13.5,800 Z M19.5,800 L20.5,800 C20.78,800 21,799.78 21,799.5 L21,789.5 C21,789.22 20.78,789 20.5,789 L19.5,789 C19.22,789 19,789.22 19,789.5 L19,799.5 C19,799.78 19.22,800 19.5,800 C19.5,800 19.22,800 19.5,800 L19.5,800 L19.5,800 Z M22.5,801 L9,801 L9,787.5 C9,787.22 8.78,787 8.5,787 L7.5,787 C7.22,787 7,787.22 7,787.5 L7,802 C7,802.55 7.45,803 8,803 L22.5,803 C22.78,803 23,802.78 23,802.5 L23,801.5 C23,801.22 22.78,801 22.5,801 L22.5,801 L22.5,801 L22.5,801 Z" id="Shape" fill="#BABFC4" sketch:type="MSShapeGroup"></path>
        <path d="M19.5,854 L16.5,854 C16.22,854 16,854.22 16,854.5 L16,855.5 C16,855.78 16.22,856 16.5,856 L19.5,856 C19.78,856 20,855.78 20,855.5 L20,854.5 C20,854.22 19.78,854 19.5,854 L19.5,854 L19.5,854 L19.5,854 Z M19.5,851 L16.5,851 C16.22,851 16,851.22 16,851.5 L16,852.5 C16,852.78 16.22,853 16.5,853 L19.5,853 C19.78,853 20,852.78 20,852.5 L20,851.5 C20,851.22 19.78,851 19.5,851 L19.5,851 L19.5,851 L19.5,851 Z M14,855.18 L14,854.72 C14.6,854.38 15,853.74 15,853 C15,851.9 14.1,851 13,851 C11.9,851 11,851.9 11,853 C11,853.74 11.4,854.38 12,854.72 L12,855.18 C10.84,855.6 10,856.69 10,858 L10,858.5 C10,858.78 10.22,859 10.5,859 L15.5,859 C15.78,859 16,858.78 16,858.5 L16,858 C16,856.69 15.16,855.6 14,855.18 C14,855.18 15.16,855.6 14,855.18 L14,855.18 L14,855.18 Z M9,850 L21,850 L21,860 L9,860 L9,850 L9,850 L9,850 L9,850 Z M22,848 L8,848 C7.45,848 7,848.45 7,849 L7,861 C7,861.55 7.45,862 8,862 L22,862 C22.55,862 23,861.55 23,861 L23,849 C23,848.45 22.55,848 22,848 L22,848 L22,848 L22,848 Z" id="Shape" fill="#BABFC4" sketch:type="MSShapeGroup"></path>
        <path d="M6.004,817.875 L6.004,829.071 C5.963,829.833 6.255,830.208 6.899,830.544 L11.557,832.915 C11.804,833.041 12.197,833.025 12.433,832.88 L17.004,830.089 L22.109,832.688 C22.603,832.939 23.004,832.688 23.004,832.126 L23.004,820.929 C23.004,820.208 22.963,819.875 22.109,819.456 L17.451,817.085 C17.204,816.959 16.811,816.975 16.575,817.12 L12.004,819.911 L6.898,817.312 C6.404,817.062 6.004,817.312 6.004,817.875 C6.004,817.875 6.004,817.312 6.004,817.875 L6.004,817.875 L6.004,817.875 Z M8.004,820.151 L11.004,821.678 L11.004,830.357 L8.004,828.831 L8.004,820.151 L8.004,820.151 L8.004,820.151 L8.004,820.151 Z M13.004,830.157 L13.004,821.674 L13.033,821.656 L16.004,819.843 L16.004,828.326 L15.975,828.344 L13.004,830.157 L13.004,830.157 L13.004,830.157 L13.004,830.157 Z M21.004,829.849 L18.004,828.322 L18.004,819.643 L21.004,821.169 L21.004,829.849 L21.004,829.849 L21.004,829.849 L21.004,829.849 Z" id="Map_1_x2C__Location_1" fill="#BABFC4" sketch:type="MSShapeGroup"></path>
        <path d="M11,915 L11,917 L13,917 L13,915 L11,915 L11,915 L11,915 L11,915 Z M14,915 L14,917 L16,917 L16,915 L14,915 L14,915 L14,915 L14,915 Z M17,915 L17,917 L19,917 L19,915 L17,915 L17,915 L17,915 L17,915 Z M11,918 L11,920 L13,920 L13,918 L11,918 L11,918 L11,918 L11,918 Z M14,918 L14,920 L16,920 L16,918 L14,918 L14,918 L14,918 L14,918 Z M17,918 L17,920 L19,920 L19,918 L17,918 L17,918 L17,918 L17,918 Z M10,909 L20,909 L20,912 L10,912 L10,909 L10,909 L10,909 L10,909 Z M10,914 L20,914 L20,921 L10,921 L10,914 L10,914 L10,914 L10,914 Z M8,908 L8,922 C8,922.55 8.45,923 9,923 L21,923 C21.55,923 22,922.55 22,922 L22,908 C22,907.45 21.55,907 21,907 L9,907 C8.45,907 8,907.45 8,908 C8,908 8,907.45 8,908 L8,908 L8,908 Z" id="Shape" fill="#BABFC4" sketch:type="MSShapeGroup"></path>
        <path d="M11.64,947.45 C11.5,947.21 11.43,947 11.21,947 L11.01,947 C9.91,947 9.01,946.1 9.01,945 C9.01,943.9 9.91,943 11.01,943 L14.01,943 C15.11,943 16.01,943.9 16.01,945 C16.01,945.55 16.46,946 17.01,946 C17.56,946 18.01,945.55 18.01,945 C18.01,944.65 17.97,944.32 17.88,944 C17.83,943.82 17.77,943.65 17.71,943.48 L17.7,943.47 C17.5,943 17.23,942.57 16.88,942.22 L16.84,942.18 C16.39,941.72 15.82,941.37 15.19,941.18 C14.81,941.06 14.42,941 14.01,941 L11.01,941 C8.8,941 7.01,942.79 7.01,945 C7.01,947.21 8.8,949 11.01,949 L12.51,949 C12.78,949 12.83,948.87 12.62,948.68 C12.23,948.32 11.9,947.91 11.64,947.45 C11.64,947.45 11.9,947.91 11.64,947.45 L11.64,947.45 L11.64,947.45 Z" id="Shape" fill="#BABFC4" sketch:type="MSShapeGroup"></path>
        <path d="M19.01,941 L17.5,941 C17.22,941 17.18,941.13 17.38,941.32 C17.77,941.67 18.11,942.09 18.37,942.55 C18.5,942.79 18.6,943 18.8,943 L19.01,943 C20.11,943 21.01,943.9 21.01,945 C21.01,946.1 20.11,947 19.01,947 L16.01,947 C14.91,947 14.01,946.1 14.01,945 C14.01,944.45 13.56,944 13.01,944 C12.46,944 12.01,944.45 12.01,945 C12.01,945.69 12.19,946.34 12.49,946.9 L12.68,947.22 C12.76,947.34 12.84,947.44 12.92,947.54 C13.01,947.65 13.11,947.76 13.22,947.86 C13.33,947.97 13.44,948.07 13.56,948.16 C13.63,948.22 13.7,948.27 13.78,948.32 C14.42,948.75 15.19,949 16.01,949 L19.01,949 C21.22,949 23.01,947.21 23.01,945 C23.01,942.79 21.22,941 19.01,941 L19.01,941 L19.01,941 L19.01,941 Z" id="Shape" fill="#BABFC4" sketch:type="MSShapeGroup"></path>
        <path d="M13,977 L13,973 L17,973 L17,977 L13,977 L13,977 L13,977 L13,977 Z M21,977 L19,977 L19,973 L21,973 C21.55,973 22,972.55 22,972 C22,971.45 21.55,971 21,971 L19,971 L19,969 C19,968.45 18.55,968 18,968 C17.45,968 17,968.45 17,969 L17,971 L13,971 L13,969 C13,968.45 12.55,968 12,968 C11.45,968 11,968.45 11,969 L11,971 L9,971 C8.45,971 8,971.45 8,972 C8,972.55 8.45,973 9,973 L11,973 L11,977 L9,977 C8.45,977 8,977.45 8,978 C8,978.55 8.45,979 9,979 L11,979 L11,981 C11,981.55 11.45,982 12,982 C12.55,982 13,981.55 13,981 L13,979 L17,979 L17,981 C17,981.55 17.45,982 18,982 C18.55,982 19,981.55 19,981 L19,979 L21,979 C21.55,979 22,978.55 22,978 C22,977.45 21.55,977 21,977 L21,977 L21,977 L21,977 Z" id="Shape" fill="#BABFC4" sketch:type="MSShapeGroup"></path>
        <path d="M8.5,1000 L7.5,1000 C7.22,1000 7,1000.22 7,1000.5 L7,1001.5 C7,1001.78 7.22,1002 7.5,1002 L8.5,1002 C8.78,1002 9,1001.78 9,1001.5 L9,1000.5 C9,1000.22 8.78,1000 8.5,1000 L8.5,1000 L8.5,1000 L8.5,1000 Z M22.5,1000 L10.5,1000 C10.22,1000 10,1000.22 10,1000.5 L10,1001.5 C10,1001.78 10.22,1002 10.5,1002 L22.5,1002 C22.78,1002 23,1001.78 23,1001.5 L23,1000.5 C23,1000.22 22.78,1000 22.5,1000 L22.5,1000 L22.5,1000 L22.5,1000 Z M8.5,1004 L7.5,1004 C7.22,1004 7,1004.22 7,1004.5 L7,1005.5 C7,1005.78 7.22,1006 7.5,1006 L8.5,1006 C8.78,1006 9,1005.78 9,1005.5 L9,1004.5 C9,1004.22 8.78,1004 8.5,1004 L8.5,1004 L8.5,1004 L8.5,1004 Z M10.5,1006 L18.5,1006 C18.78,1006 19,1005.78 19,1005.5 L19,1004.5 C19,1004.22 18.78,1004 18.5,1004 L10.5,1004 C10.22,1004 10,1004.22 10,1004.5 L10,1005.5 C10,1005.78 10.22,1006 10.5,1006 C10.5,1006 10.22,1006 10.5,1006 L10.5,1006 L10.5,1006 Z M8.5,1008 L7.5,1008 C7.22,1008 7,1008.22 7,1008.5 L7,1009.5 C7,1009.78 7.22,1010 7.5,1010 L8.5,1010 C8.78,1010 9,1009.78 9,1009.5 L9,1008.5 C9,1008.22 8.78,1008 8.5,1008 L8.5,1008 L8.5,1008 L8.5,1008 Z M20.5,1008 L10.5,1008 C10.22,1008 10,1008.22 10,1008.5 L10,1009.5 C10,1009.78 10.22,1010 10.5,1010 L20.5,1010 C20.78,1010 21,1009.78 21,1009.5 L21,1008.5 C21,1008.22 20.78,1008 20.5,1008 L20.5,1008 L20.5,1008 L20.5,1008 Z" id="Shape" fill="#BABFC4" sketch:type="MSShapeGroup"></path>
        <path d="M20.66,1089 L12,1097.65 L9.34,1095 L7,1097.34 L12,1102.35 L23,1091.34 L20.66,1089 Z" id="Shape" fill="#BABFC4" sketch:type="MSShapeGroup"></path>
        <path d="M14.9023438,877 C10.4913438,877 6.90234375,880.589 6.90234375,885 C6.90234375,889.411 10.4913438,893 14.9023438,893 C19.3133438,893 22.9023438,889.411 22.9023438,885 C22.9023438,880.589 19.3133438,877 14.9023438,877 L14.9023438,877 L14.9023438,877 L14.9023438,877 Z M20.9023438,885 C20.9023438,885.207 20.8913438,885.412 20.8713438,885.613 C19.9213437,885.311 18.9273437,885.15 17.9023438,885.15 C17.7383437,885.15 17.5513438,885.175 17.3793438,885.185 C17.2393437,884.66 17.0593438,884.143 16.8363438,883.638 C17.9243438,883.082 18.9083438,882.356 19.7453437,881.471 C20.4683438,882.464 20.9023438,883.681 20.9023438,885 C20.9023438,885 20.9023438,883.681 20.9023438,885 L20.9023438,885 L20.9023438,885 Z M18.5563437,880.252 C17.8353437,881.027 16.9813438,881.663 16.0333438,882.144 C15.3043438,881.014 14.3613437,880.025 13.2733437,879.231 C13.7933437,879.084 14.3383437,879 14.9023438,879 C16.2783437,879 17.5443437,879.471 18.5563437,880.252 C18.5563437,880.252 17.5443437,879.471 18.5563437,880.252 L18.5563437,880.252 L18.5563437,880.252 Z M11.4553438,880.097 C12.6203437,880.772 13.6293438,881.695 14.3983438,882.796 C12.7383438,883.264 10.9683438,883.258 9.33234375,882.781 C9.76734375,881.693 10.5103438,880.763 11.4553438,880.097 C11.4553438,880.097 10.5103438,880.763 11.4553438,880.097 L11.4553438,880.097 L11.4553438,880.097 Z M8.90234375,885 C8.90234375,884.809 8.91434375,884.619 8.93134375,884.432 C9.89034375,884.705 10.8843437,884.85 11.9023438,884.85 C13.0473437,884.85 14.1683438,884.663 15.2483438,884.313 C15.4083438,884.673 15.5443437,885.041 15.6543438,885.417 C13.5193438,885.914 11.6313437,887.1 10.2613437,888.798 C9.41334375,887.763 8.90234375,886.44 8.90234375,885 C8.90234375,885 8.90234375,886.44 8.90234375,885 L8.90234375,885 L8.90234375,885 Z M11.5123438,889.946 C12.6423438,888.506 14.2203438,887.5 16.0053438,887.077 C16.0353437,887.376 16.0523438,887.685 16.0523438,888 C16.0523438,889.027 15.8763438,890.02 15.5483438,890.964 C15.3373438,890.986 15.1213438,891 14.9023438,891 C13.6443438,891 12.4783438,890.609 11.5123438,889.946 C11.5123438,889.946 12.4783438,890.609 11.5123438,889.946 L11.5123438,889.946 L11.5123438,889.946 Z M17.4733437,890.413 C17.6523438,889.629 17.7523437,888.824 17.7523437,888 C17.7523437,887.611 17.7303437,887.232 17.6913437,886.864 C17.7583437,886.862 17.8363437,886.85 17.9023438,886.85 C18.7873437,886.85 19.6423437,886.989 20.4573437,887.26 C19.8903437,888.646 18.8193437,889.771 17.4733437,890.413 C17.4733437,890.413 18.8193437,889.771 17.4733437,890.413 L17.4733437,890.413 L17.4733437,890.413 Z" id="Shape" fill="#BABFC4" sketch:type="MSShapeGroup"></path>
        <path d="M16,1157 L12.354,1153.354 C12.159,1153.159 11.842,1153.159 11.647,1153.354 L10.354,1154.646 C10.158,1154.842 10,1155.224 10,1155.5 L10,1159.5 C10,1159.776 10.224,1160 10.5,1160 L19.5,1160 C19.776,1160 20,1159.776 20,1159.5 L20,1157.5 C20,1157.224 19.842,1156.842 19.646,1156.646 L18.353,1155.353 C18.158,1155.158 17.841,1155.158 17.646,1155.353 L16,1157 L16,1157 L16,1157 L16,1157 Z" id="Shape" fill="#BABFC4" sketch:type="MSShapeGroup"></path>
        <circle id="Oval" fill="#BABFC4" sketch:type="MSShapeGroup" cx="17.5" cy="1152.5" r="1.5"></circle>
        <path d="M22,1147 L8,1147 C7.447,1147 7,1147.447 7,1148 L7,1162 C7,1162.553 7.447,1163 8,1163 L22,1163 C22.553,1163 23,1162.553 23,1162 L23,1148 C23,1147.447 22.553,1147 22,1147 L22,1147 L22,1147 L22,1147 Z M21,1161 L9,1161 L9,1149 L21,1149 L21,1161 L21,1161 L21,1161 L21,1161 Z" id="Shape" fill="#BABFC4" sketch:type="MSShapeGroup"></path>
        <path d="M22,1117 L11,1117 C10.447,1117 10,1117.447 10,1118 L10,1120 L8,1120 C7.447,1120 7,1120.447 7,1121 L7,1132 C7,1132.553 7.447,1133 8,1133 L19,1133 C19.553,1133 20,1132.553 20,1132 L20,1130 L22,1130 C22.553,1130 23,1129.553 23,1129 L23,1118 C23,1117.447 22.553,1117 22,1117 L22,1117 L22,1117 L22,1117 Z M18,1131 L9,1131 L9,1122 L18,1122 L18,1131 L18,1131 L18,1131 L18,1131 Z M21,1128 L20,1128 L20,1121 C20,1120.447 19.553,1120 19,1120 L12,1120 L12,1119 L21,1119 L21,1128 L21,1128 L21,1128 L21,1128 Z" id="Shape" fill="#BABFC4" sketch:type="MSShapeGroup"></path>
        <path d="M10.5,1130 L16.5,1130 C16.776,1130 17,1129.861 17,1129.568 L17,1129.302 C17,1129.155 16.825,1128.889 16.609,1128.706 L12.391,1125.125 C12.175,1124.942 11.842,1124.962 11.646,1125.17 L10.354,1126.541 C10.158,1126.748 10,1127.153 10,1127.446 L10,1129.568 C10,1129.861 10.224,1130 10.5,1130 C10.5,1130 10.224,1130 10.5,1130 L10.5,1130 L10.5,1130 Z" id="Shape" fill="#BABFC4" sketch:type="MSShapeGroup"></path>
        <circle id="Oval" fill="#BABFC4" sketch:type="MSShapeGroup" cx="15.5" cy="1124.5" r="1.5"></circle>
        <path d="M9.79518136,1040.38266 C9.968731,1040.37703 10.205114,1040.3587 10.5043376,1040.3277 C10.8035611,1040.29669 11.0339597,1040.25581 11.1955404,1040.20507 C11.4289348,1040.13178 11.6069701,1040.02044 11.7296517,1039.87104 C11.8523334,1039.72163 11.9376108,1039.54827 11.9854866,1039.35095 L14.0411419,1030.96195 C14.0710642,1030.84355 14.0920095,1030.74489 14.1039785,1030.66596 C14.1159474,1030.58703 14.1219318,1030.52784 14.1219318,1030.48837 C14.1219318,1030.25158 13.982795,1030.06695 13.7045171,1029.93446 C13.4262392,1029.80197 12.9998521,1029.69627 12.4253429,1029.61734 L12.5779462,1029 L19.6425781,1029 L19.4899749,1029.61734 C19.2984718,1029.62861 19.0531122,1029.65539 18.7538887,1029.69767 C18.4546652,1029.73996 18.2302509,1029.78365 18.0806392,1029.82875 C17.8352759,1029.90204 17.6542484,1030.01621 17.5375512,1030.17125 C17.420854,1030.32629 17.3385688,1030.49965 17.290693,1030.69133 L15.2350377,1039.08879 C15.2110998,1039.18464 15.1916506,1039.27484 15.1766894,1039.35941 C15.1617283,1039.44398 15.1542478,1039.50881 15.1542478,1039.55391 C15.1542478,1039.8358 15.2933846,1040.03171 15.5716625,1040.14165 C15.8499404,1040.25159 16.2793197,1040.33192 16.8598133,1040.38266 L16.7072101,1041 L9.64257812,1041 L9.79518136,1040.38266 Z" id="I" fill="#BABFC4" sketch:type="MSShapeGroup"></path>
        <path d="M19.3955249,1065.49471 C19.7697958,1065.74278 20.0738863,1066.05426 20.3078056,1066.42918 C20.5417249,1066.80409 20.6586828,1067.24524 20.6586828,1067.75264 C20.6586828,1068.36153 20.5256432,1068.87597 20.25956,1069.29598 C19.9934768,1069.716 19.6119017,1070.04722 19.1148232,1070.28964 C18.5885048,1070.54898 17.9817857,1070.73221 17.2946478,1070.83932 C16.6075098,1070.94644 15.7990384,1071 14.8692092,1071 L8.40429688,1071 L8.40429688,1070.34038 C8.58558433,1070.32347 8.81365223,1070.2981 9.0885074,1070.26427 C9.36336258,1070.23044 9.5563431,1070.19098 9.66745477,1070.14588 C9.88383012,1070.06131 10.0314895,1069.94997 10.1104372,1069.81184 C10.189385,1069.67371 10.2288583,1069.49472 10.2288583,1069.27484 L10.2288583,1060.81818 C10.2288583,1060.61522 10.1966949,1060.44609 10.1323671,1060.31078 C10.0680392,1060.17548 9.91307003,1060.05708 9.66745477,1059.9556 C9.48616731,1059.88231 9.2756431,1059.82171 9.03587582,1059.77378 C8.79610854,1059.72586 8.58558433,1059.68781 8.40429688,1059.65962 L8.40429688,1059 L15.1674548,1059 C16.8692177,1059 18.0972756,1059.22551 18.8516653,1059.67653 C19.606055,1060.12756 19.9832442,1060.79281 19.9832442,1061.6723 C19.9832442,1062.07823 19.8984498,1062.43481 19.7288583,1062.74207 C19.5592668,1063.04933 19.3165792,1063.31571 19.0007881,1063.54123 C18.714237,1063.74982 18.3721351,1063.93023 17.9744723,1064.08245 C17.5768095,1064.23467 17.1499132,1064.36152 16.6937706,1064.463 L16.6937706,1064.62368 C17.1499132,1064.66878 17.6235927,1064.76603 18.1148232,1064.91543 C18.6060537,1065.06484 19.03295,1065.25793 19.3955249,1065.49471 C19.3955249,1065.49471 19.03295,1065.25793 19.3955249,1065.49471 Z M16.5709635,1061.88372 C16.5709635,1061.21846 16.376521,1060.69979 15.9876302,1060.3277 C15.5987394,1059.9556 15.0154119,1059.76956 14.2376302,1059.76956 C14.1265185,1059.76956 13.9817831,1059.77378 13.8034197,1059.78224 C13.6250562,1059.7907 13.471549,1059.79774 13.3428934,1059.80338 L13.3428934,1064.25159 L13.7990337,1064.25159 C14.7464069,1064.25159 15.4452303,1064.03876 15.8955249,1063.61311 C16.3458196,1063.18745 16.5709635,1062.611 16.5709635,1061.88372 C16.5709635,1061.88372 16.5709635,1062.611 16.5709635,1061.88372 Z M17.1849986,1067.64271 C17.1849986,1066.80831 16.9276913,1066.16843 16.4130688,1065.72304 C15.8984463,1065.27766 15.1586877,1065.05497 14.1937706,1065.05497 C14.0826589,1065.05497 13.9349996,1065.0592 13.7507881,1065.06765 C13.5665767,1065.07611 13.4306131,1065.08316 13.3428934,1065.08879 L13.3428934,1069.4778 C13.3955252,1069.6864 13.5592663,1069.86258 13.8341214,1070.00634 C14.1089766,1070.15011 14.4423066,1070.22199 14.8341214,1070.22199 C15.5300313,1070.22199 16.0958152,1069.99648 16.5314899,1069.54545 C16.9671646,1069.09443 17.1849986,1068.46019 17.1849986,1067.64271 C17.1849986,1067.64271 17.1849986,1068.46019 17.1849986,1067.64271 Z" id="B" fill="#BABFC4" sketch:type="MSShapeGroup"></path>
        <path d="M22,1177 L12,1177 C11.447,1177 11,1177.447 11,1178 L11,1179 L8,1179 C7.447,1179 7,1179.447 7,1180 L7,1190 C7,1191.66 8.34,1193 10,1193 L20,1193 C21.66,1193 23,1191.66 23,1190 L23,1178 C23,1177.447 22.553,1177 22,1177 L22,1177 L22,1177 L22,1177 Z M9,1181 L11,1181 L11,1190 C11,1190.55 10.55,1191 10,1191 C9.45,1191 9,1190.55 9,1190 L9,1181 L9,1181 L9,1181 L9,1181 Z M21,1190 C21,1190.55 20.55,1191 20,1191 L12.816,1191 C12.928,1190.686 13,1190.353 13,1190 L13,1179 L21,1179 L21,1190 L21,1190 L21,1190 L21,1190 Z" id="Shape" fill="#BABFC4" sketch:type="MSShapeGroup"></path>
        <path d="M14.5,1182 L19.5,1182 C19.776,1182 20,1181.776 20,1181.5 L20,1180.5 C20,1180.224 19.776,1180 19.5,1180 L14.5,1180 C14.224,1180 14,1180.224 14,1180.5 L14,1181.5 C14,1181.776 14.224,1182 14.5,1182 C14.5,1182 14.224,1182 14.5,1182 L14.5,1182 L14.5,1182 Z" id="Shape" fill="#BABFC4" sketch:type="MSShapeGroup"></path>
        <path d="M14.5,1185 L19.5,1185 C19.776,1185 20,1184.776 20,1184.5 L20,1183.5 C20,1183.224 19.776,1183 19.5,1183 L14.5,1183 C14.224,1183 14,1183.224 14,1183.5 L14,1184.5 C14,1184.776 14.224,1185 14.5,1185 C14.5,1185 14.224,1185 14.5,1185 L14.5,1185 L14.5,1185 Z" id="Shape" fill="#BABFC4" sketch:type="MSShapeGroup"></path>
        <path d="M14.5,1188 L19.5,1188 C19.776,1188 20,1187.776 20,1187.5 L20,1186.5 C20,1186.224 19.776,1186 19.5,1186 L14.5,1186 C14.224,1186 14,1186.224 14,1186.5 L14,1187.5 C14,1187.776 14.224,1188 14.5,1188 C14.5,1188 14.224,1188 14.5,1188 L14.5,1188 L14.5,1188 Z" id="Shape" fill="#BABFC4" sketch:type="MSShapeGroup"></path>
        <path d="M8.875,1297 C8.391125,1297 8,1297.447 8,1298 L8,1313 L15,1310 L22,1313 L22,1298 C22,1297.447 21.608875,1297 21.125,1297 L8.875,1297 Z M10,1299 L10,1310 L15,1308 L20,1310 L20,1299 L10,1299 Z" id="Path-copy-2" fill="#BABFC4" sketch:type="MSShapeGroup"></path>
        <path d="M16,1303.723 C16.596,1303.376 17,1302.738 17,1302 C17,1300.896 16.104,1300 15,1300 C13.896,1300 13,1300.896 13,1302 C13,1302.738 13.404,1303.376 14,1303.723 L14,1304.184 C12.838,1304.598 12,1305.695 12,1307 L18,1307 C18,1305.695 17.162,1304.598 16,1304.184 L16,1303.723 Z" id="Shape-copy-2" fill="#BABFC4" sketch:type="MSShapeGroup"></path>
        <path d="M19.016,1212.87 C19.148,1212.212 19.785,1212.859 19.907,1211.358 C19.907,1210.759 19.559,1210.61 19.559,1210.61 C19.559,1210.61 19.736,1209.725 19.805,1209.043 C19.891,1208.194 19.276,1206 16,1206 C12.724,1206 12.109,1208.194 12.195,1209.043 C12.265,1209.726 12.441,1210.61 12.441,1210.61 C12.441,1210.61 12.094,1210.76 12.094,1211.358 C12.215,1212.859 12.852,1212.212 12.984,1212.87 C13.301,1214.456 14.021,1214.174 14.021,1215.039 C14.021,1216.481 13.267,1217.155 10.907,1217.953 C8.538,1218.755 8,1219.571 8,1220.129 L8,1221.066 C8,1221.582 8.447,1222 9,1222 L16,1222 L23,1222 C23.553,1222 24,1221.582 24,1221.065 L24,1220.128 C24,1219.57 23.462,1218.754 21.094,1217.952 C18.733,1217.155 17.979,1216.481 17.979,1215.039 C17.979,1214.174 18.7,1214.456 19.016,1212.87 Z" id="Shape-copy-2" fill="#BABFC4" sketch:type="MSShapeGroup"></path>
        <path d="M11.5,1213 L10,1213 L10,1211.5 C10,1211.224 9.776,1211 9.5,1211 L8.5,1211 C8.224,1211 8,1211.224 8,1211.5 L8,1213 L6.5,1213 C6.224,1213 6,1213.224 6,1213.5 L6,1214.5 C6,1214.776 6.224,1215 6.5,1215 L8,1215 L8,1216.5 C8,1216.776 8.224,1217 8.5,1217 L9.5,1217 C9.776,1217 10,1216.776 10,1216.5 L10,1215 L11.5,1215 C11.776,1215 12,1214.776 12,1214.5 L12,1213.5 C12,1213.224 11.776,1213 11.5,1213 L11.5,1213 L11.5,1213 L11.5,1213 Z" id="Shape-copy-2" fill="#BABFC4" sketch:type="MSShapeGroup"></path>
        <path d="M11.5,1243 L18.5,1243 C18.776,1243 19,1242.776 19,1242.5 L19,1241.5 C19,1241.224 18.776,1241 18.5,1241 L11.5,1241 C11.224,1241 11,1241.224 11,1241.5 L11,1242.5 C11,1242.776 11.224,1243 11.5,1243 C11.5,1243 11.224,1243 11.5,1243 L11.5,1243 L11.5,1243 Z" id="Shape-copy-2" fill="#BABFC4" sketch:type="MSShapeGroup"></path>
        <path d="M11.5,1246 L18.5,1246 C18.776,1246 19,1245.776 19,1245.5 L19,1244.5 C19,1244.224 18.776,1244 18.5,1244 L11.5,1244 C11.224,1244 11,1244.224 11,1244.5 L11,1245.5 C11,1245.776 11.224,1246 11.5,1246 C11.5,1246 11.224,1246 11.5,1246 L11.5,1246 L11.5,1246 Z" id="Shape-copy-2" fill="#BABFC4" sketch:type="MSShapeGroup"></path>
        <path d="M22,1237 L8,1237 C7.447,1237 7,1237.447 7,1238 L7,1249 C7,1249.553 7.447,1250 8,1250 L9,1250 L9,1252 C9,1252.553 9.447,1253 10,1253 L11,1253 C11.182,1253 11.359,1252.951 11.515,1252.857 L16.277,1250 L22,1250 C22.553,1250 23,1249.553 23,1249 L23,1238 C23,1237.447 22.553,1237 22,1237 L22,1237 L22,1237 L22,1237 Z M21,1248 L16,1248 C15.818,1248 15.641,1248.049 15.485,1248.143 L11,1250.834 L11,1249 C11,1248.447 10.553,1248 10,1248 L9,1248 L9,1239 L21,1239 L21,1248 L21,1248 L21,1248 L21,1248 Z" id="Shape-copy-2" fill="#BABFC4" sketch:type="MSShapeGroup"></path>
        <path d="M19.5,1336 C19.375,1336 19.258,1336.023 19.137,1336.037 L17.955,1333.675 C18.598,1332.965 19,1332.033 19,1331 C19,1328.791 17.209,1327 15,1327 C12.791,1327 11,1328.791 11,1331 C11,1332.033 11.402,1332.965 12.045,1333.674 L10.863,1336.037 C10.742,1336.023 10.625,1336 10.5,1336 C8.567,1336 7,1337.567 7,1339.5 C7,1341.433 8.567,1343 10.5,1343 C12.433,1343 14,1341.433 14,1339.5 C14,1338.412 13.492,1337.451 12.713,1336.81 L13.73,1334.775 C14.132,1334.91 14.554,1335 15,1335 C15.446,1335 15.868,1334.91 16.27,1334.775 L17.288,1336.809 C16.508,1337.451 16,1338.412 16,1339.5 C16,1341.433 17.567,1343 19.5,1343 C21.433,1343 23,1341.433 23,1339.5 C23,1337.567 21.433,1336 19.5,1336 L19.5,1336 L19.5,1336 L19.5,1336 Z M10.5,1341.3 C9.508,1341.3 8.7,1340.492 8.7,1339.5 C8.7,1338.508 9.508,1337.7 10.5,1337.7 C11.492,1337.7 12.3,1338.508 12.3,1339.5 C12.3,1340.492 11.492,1341.3 10.5,1341.3 L10.5,1341.3 L10.5,1341.3 L10.5,1341.3 Z M12.943,1331 C12.943,1329.865 13.865,1328.943 15,1328.943 C16.135,1328.943 17.057,1329.865 17.057,1331 C17.057,1332.135 16.135,1333.057 15,1333.057 C13.865,1333.057 12.943,1332.135 12.943,1331 C12.943,1331 12.943,1332.135 12.943,1331 L12.943,1331 L12.943,1331 Z M19.5,1341.3 C18.508,1341.3 17.7,1340.492 17.7,1339.5 C17.7,1338.508 18.508,1337.7 19.5,1337.7 C20.492,1337.7 21.3,1338.508 21.3,1339.5 C21.3,1340.492 20.492,1341.3 19.5,1341.3 L19.5,1341.3 L19.5,1341.3 L19.5,1341.3 Z" id="Share_4-copy-2" fill="#BABFC4" sketch:type="MSShapeGroup"></path>
        <path d="M12,1279.33333 L12,1276 L8,1276 L8,1274 L12,1274 L12,1274 L12,1273 L14,1273 L14,1279 L16,1279 L16,1273 L12,1273 L12,1271 L16,1271 L16,1271 L16,1269 L18,1269 L18,1279.33333 L18,1279.33333 L20,1279.66667 L20,1269 L22,1269 L22,1280.5 L22,1282 L16,1281 L14,1281 L8,1282 L8,1280 L8,1276 L10,1276 L10,1279.66667 L12,1279.33333 Z M16,1267 L16,1269 L22,1269 L22,1267 L16,1267 Z" id="Rectangle-17-copy-2" fill="#BABFC4" sketch:type="MSShapeGroup"></path>
        <rect id="Rectangle-34" fill="#BABFC4" sketch:type="MSShapeGroup" x="7" y="1363" width="16" height="3"></rect>
        <rect id="Rectangle-34-copy" fill="#BABFC4" sketch:type="MSShapeGroup" x="7" y="1396" width="16" height="3"></rect>
        <rect id="Rectangle-34-copy-2" fill="#BABFC4" sketch:type="MSShapeGroup" x="7" y="1390" width="16" height="3"></rect>
        <rect id="Rectangle-34-copy-2" fill="#BABFC4" sketch:type="MSShapeGroup" x="6" y="1484" width="18" height="3" rx="1"></rect>
        <rect id="Rectangle-34-copy-2" fill="#BABFC4" sketch:type="MSShapeGroup" x="7" y="1604" width="16" height="3" rx="1"></rect>
        <rect id="Rectangle-34-copy-3" fill="#BABFC4" sketch:type="MSShapeGroup" x="6" y="1490" width="18" height="3" rx="1"></rect>
        <rect id="Rectangle-34-copy-3" fill="#BABFC4" sketch:type="MSShapeGroup" x="6" y="1478" width="18" height="3" rx="1"></rect>
        <circle id="Oval-10" fill="#BABFC4" sketch:type="MSShapeGroup" cx="15" cy="1359" r="2"></circle>
        <circle id="Oval-10-copy" fill="#BABFC4" sketch:type="MSShapeGroup" cx="15" cy="1370" r="2"></circle>
        <circle id="Oval-12" fill="#BABFC4" sketch:type="MSShapeGroup" cx="9" cy="1425" r="2"></circle>
        <path d="M15,1447 C10.582,1447 7,1450.582 7,1455 C7,1459.418 10.582,1463 15,1463 C19.418,1463 23,1459.418 23,1455 C23,1450.582 19.418,1447 15,1447 L15,1447 L15,1447 L15,1447 Z M16,1459.5 C16,1459.776 15.776,1460 15.5,1460 L14.5,1460 C14.224,1460 14,1459.776 14,1459.5 L14,1458.5 C14,1458.224 14.224,1458 14.5,1458 L15.5,1458 C15.776,1458 16,1458.224 16,1458.5 L16,1459.5 L16,1459.5 L16,1459.5 L16,1459.5 Z M16,1455.828 L16,1456.5 C16,1456.776 15.776,1457 15.5,1457 L14.5,1457 C14.224,1457 14,1456.776 14,1456.5 L14,1455 C14,1454.447 14.125,1454 14.75,1454 L15.5,1454 C15.776,1454 16,1453.776 16,1453.5 L16,1452.5 C16,1452.224 15.776,1452 15.5,1452 L14.5,1452 C14.224,1452 14,1452.224 14,1452.5 C14,1452.639 13.906,1453 13.5,1453 L12.5,1453 C12.125,1453 11.996,1452.775 12.041,1452.502 C12.279,1451.084 13.516,1450 15,1450 C16.654,1450 18,1451.346 18,1453 C18,1454.304 17.164,1455.416 16,1455.828 C16,1455.828 17.164,1455.416 16,1455.828 L16,1455.828 L16,1455.828 Z" id="Question_2_x2C__Help_2" fill="#BABFC4" sketch:type="MSShapeGroup"></path>
        <circle id="Oval-12-copy" fill="#BABFC4" sketch:type="MSShapeGroup" cx="15" cy="1425" r="2"></circle>
        <circle id="Oval-12-copy-2" fill="#BABFC4" sketch:type="MSShapeGroup" cx="21" cy="1425" r="2"></circle>
        <path d="M15,1507 C10.582,1507 7,1510.582 7,1515 C7,1519.418 10.582,1523 15,1523 C19.418,1523 23,1519.418 23,1515 C23,1510.582 19.418,1507 15,1507 L15,1507 Z M15,1521 C13.229,1521 11.64,1520.225 10.54,1519 L19.46,1519 C18.36,1520.225 16.771,1521 15,1521 L15,1521 Z M16,1517 L16,1514 C16,1513.447 15.553,1513 15,1513 L15,1513 C14.447,1513 14,1513.447 14,1514 L14,1517 L9.35,1517 C9.235,1516.678 9.148,1516.344 9.09,1516 L10.002,1516 C10.555,1516 11.002,1515.551 11.001,1515 C11,1514.447 10.552,1514 10,1514 L9.09,1514 C9.247,1513.072 9.615,1512.218 10.147,1511.486 L10.76,1512.172 C11.151,1512.563 11.783,1512.563 12.173,1512.172 C12.563,1511.781 12.563,1511.062 12.172,1510.671 L11.599,1510.062 C12.305,1509.574 13.12,1509.238 14,1509.09 L14,1510 C14,1510.553 14.447,1511 15,1511 C15.553,1511 16,1510.553 16,1510 L16,1509.09 C16.909,1509.244 17.749,1509.6 18.471,1510.115 L17.828,1510.758 C17.437,1511.149 17.437,1511.781 17.828,1512.172 C18.219,1512.563 18.851,1512.563 19.242,1512.172 L19.885,1511.529 C20.399,1512.251 20.756,1513.09 20.91,1514 L20,1514 C19.447,1514 19,1514.447 19,1515 C19,1515.553 19.447,1516 20,1516 L20.91,1516 C20.851,1516.344 20.764,1516.678 20.65,1517 L16,1517 L16,1517 Z" id="Gauge_1_x2C__Speedometer_1" fill="#BABFC4" sketch:type="MSShapeGroup"></path>
        <path d="M14.2604,1539.02252 C16.9436656,1538.70225 16.4734156,1541.88279 15.6109625,1543.16559 C15.6109625,1543.16559 17.3995719,1543.28439 18.0491188,1543.34599 C19.3008219,1543.46465 19.3008219,1545.27465 18.2329156,1545.27465 C19.3009625,1545.27465 19.3009625,1547.18305 18.2329156,1547.18305 C19.3009625,1547.18305 19.3009625,1549.09159 18.2329156,1549.09159 C19.3009625,1549.09159 19.3009625,1550.99999 18.2329156,1550.99985 L12.4329781,1550.99985 C9.93350939,1551.01279 9.80385314,1547.51439 10.1291188,1545.12412 C10.5297594,1542.18132 14.6654,1542.95465 14.2604,1539.02252 L14.2604,1539.02252 Z" id="Shape" fill="#BABFC4" sketch:type="MSShapeGroup"></path>
        <path d="M13.5325,1570.15 C13.3425,1569.95 13.0425,1569.95 12.8525,1570.15 L12.1625,1570.87 C11.9825,1571.06 11.9825,1571.38 12.1625,1571.58 L15.4625,1574.99 L12.1425,1578.42 C11.9525,1578.62 11.9525,1578.94 12.1425,1579.14 L12.8225,1579.85 C13.0125,1580.05 13.3225,1580.05 13.5025,1579.85 L17.8525,1575.34 C18.0425,1575.15 18.0425,1574.83 17.8525,1574.63 L13.5325,1570.15 L13.5325,1570.15 L13.5325,1570.15 L13.5325,1570.15 Z" id="Shape" fill="#BABFC4" sketch:type="MSShapeGroup" transform="translate(14.997500, 1575.000000) scale(-1, 1) translate(-14.997500, -1575.000000) "></path>
        <path d="M18.3659291,1631.17004 L19.8661217,1628.57163 C20.1422109,1628.09343 19.9816272,1627.48384 19.5,1627.20577 C19.0217074,1626.92963 18.4121163,1627.09004 18.1340709,1627.57163 L16.6338783,1630.17004 C16.3577891,1630.64824 16.5183728,1631.25783 17,1631.5359 C17.4782926,1631.81204 18.0878837,1631.65163 18.3659291,1631.17004 Z" id="Path" fill="#BABFC4" sketch:type="MSShapeGroup"></path>
        <path d="M11.8659291,1642.42837 L13.3661217,1639.82996 C13.6422109,1639.35176 13.4816272,1638.74217 13,1638.4641 C12.5217074,1638.18796 11.9121163,1638.34837 11.6340709,1638.82996 L10.1338783,1641.42837 C9.85778913,1641.90657 10.0183728,1642.51616 10.5,1642.79423 C10.9782926,1643.07037 11.5878837,1642.90996 11.8659291,1642.42837 Z" id="Path" fill="#BABFC4" sketch:type="MSShapeGroup"></path>
        <path d="M19.8299603,1633.36612 L22.4283699,1631.86593 C22.9065705,1631.58984 23.0722962,1630.98163 22.7942286,1630.5 C22.5180863,1630.02171 21.9099587,1629.85583 21.4283699,1630.13388 L18.8299603,1631.63407 C18.3517598,1631.91016 18.186034,1632.51837 18.4641016,1633 C18.740244,1633.47829 19.3483715,1633.64417 19.8299603,1633.36612 Z" id="Path" fill="#BABFC4" sketch:type="MSShapeGroup"></path>
        <path d="M8.57163005,1639.86612 L11.1700397,1638.36593 C11.6482402,1638.08984 11.813966,1637.48163 11.5358984,1637 C11.259756,1636.52171 10.6516285,1636.35583 10.1700397,1636.63388 L7.57163005,1638.13407 C7.0934295,1638.41016 6.92770378,1639.01837 7.20577137,1639.5 C7.48191374,1639.97829 8.09004125,1640.14417 8.57163005,1639.86612 Z" id="Path" fill="#BABFC4" sketch:type="MSShapeGroup"></path>
        <path d="M19.9998075,1636 L23.0001925,1636 C23.5523709,1636 24,1635.55614 24,1635 C24,1634.44772 23.5562834,1634 23.0001925,1634 L19.9998075,1634 C19.4476291,1634 19,1634.44386 19,1635 C19,1635.55228 19.4437166,1636 19.9998075,1636 Z" id="Path" fill="#BABFC4" sketch:type="MSShapeGroup"></path>
        <path d="M6.99980749,1636 L10.0001925,1636 C10.5523709,1636 11,1635.55614 11,1635 C11,1634.44772 10.5562834,1634 10.0001925,1634 L6.99980749,1634 C6.44762906,1634 6,1634.44386 6,1635 C6,1635.55228 6.44371665,1636 6.99980749,1636 Z" id="Path" fill="#BABFC4" sketch:type="MSShapeGroup"></path>
        <path d="M18.8299603,1638.36593 L21.4283699,1639.86612 C21.9065705,1640.14221 22.516161,1639.98163 22.7942286,1639.5 C23.070371,1639.02171 22.9099587,1638.41212 22.4283699,1638.13407 L19.8299603,1636.63388 C19.3517598,1636.35779 18.7421692,1636.51837 18.4641016,1637 C18.1879592,1637.47829 18.3483715,1638.08788 18.8299603,1638.36593 Z" id="Path" fill="#BABFC4" sketch:type="MSShapeGroup"></path>
        <path d="M7.57163005,1631.86593 L10.1700397,1633.36612 C10.6482402,1633.64221 11.2578308,1633.48163 11.5358984,1633 C11.8120408,1632.52171 11.6516285,1631.91212 11.1700397,1631.63407 L8.57163005,1630.13388 C8.0934295,1629.85779 7.48383895,1630.01837 7.20577137,1630.5 C6.92962899,1630.97829 7.09004125,1631.58788 7.57163005,1631.86593 Z" id="Path" fill="#BABFC4" sketch:type="MSShapeGroup"></path>
        <path d="M16.6338783,1639.82996 L18.1340709,1642.42837 C18.4101601,1642.90657 19.0183728,1643.0723 19.5,1642.79423 C19.9782926,1642.51809 20.1441671,1641.90996 19.8661217,1641.42837 L18.3659291,1638.82996 C18.0898399,1638.35176 17.4816272,1638.18603 17,1638.4641 C16.5217074,1638.74024 16.3558329,1639.34837 16.6338783,1639.82996 Z" id="Path" fill="#BABFC4" sketch:type="MSShapeGroup"></path>
        <path d="M10.1338783,1628.57163 L11.6340709,1631.17004 C11.9101601,1631.64824 12.5183728,1631.81397 13,1631.5359 C13.4782926,1631.25976 13.6441671,1630.65163 13.3661217,1630.17004 L11.8659291,1627.57163 C11.5898399,1627.09343 10.9816272,1626.9277 10.5,1627.20577 C10.0217074,1627.48191 9.85583292,1628.09004 10.1338783,1628.57163 Z" id="Path" fill="#BABFC4" sketch:type="MSShapeGroup"></path>
        <path d="M14,1639.99981 L14,1643.00019 C14,1643.55237 14.4438648,1644 15,1644 C15.5522847,1644 16,1643.55628 16,1643.00019 L16,1639.99981 C16,1639.44763 15.5561352,1639 15,1639 C14.4477153,1639 14,1639.44372 14,1639.99981 Z" id="Path" fill="#BABFC4" sketch:type="MSShapeGroup"></path>
        <path d="M14,1626.99981 L14,1630.00019 C14,1630.55237 14.4438648,1631 15,1631 C15.5522847,1631 16,1630.55628 16,1630.00019 L16,1626.99981 C16,1626.44763 15.5561352,1626 15,1626 C14.4477153,1626 14,1626.44372 14,1626.99981 Z" id="Path" fill="#BABFC4" sketch:type="MSShapeGroup"></path>
        <path d="M18.016,1663.87 C18.148,1663.212 18.785,1663.859 18.907,1662.358 C18.907,1661.759 18.559,1661.61 18.559,1661.61 C18.559,1661.61 18.736,1660.725 18.805,1660.043 C18.891,1659.194 18.276,1657 15,1657 C11.724,1657 11.109,1659.194 11.195,1660.043 C11.265,1660.726 11.441,1661.61 11.441,1661.61 C11.441,1661.61 11.094,1661.76 11.094,1662.358 C11.215,1663.859 11.852,1663.212 11.984,1663.87 C12.301,1665.456 13.021,1665.174 13.021,1666.039 C13.021,1667.481 12.267,1668.155 9.907,1668.953 C7.538,1669.755 7,1670.571 7,1671.129 L7,1672.066 C7,1672.582 7.447,1673 8,1673 L15,1673 L22,1673 C22.553,1673 23,1672.582 23,1672.065 L23,1671.128 C23,1670.57 22.462,1669.754 20.094,1668.952 C17.733,1668.155 16.979,1667.481 16.979,1666.039 C16.979,1665.174 17.7,1665.456 18.016,1663.87 Z" id="Shape-copy-2" fill="#BABFC4" sketch:type="MSShapeGroup"></path>
    </g>
</svg>